<svg width="126" height="126" viewBox="0 0 126 126" fill="none" xmlns="http://www.w3.org/2000/svg">
<path d="M70.489 76.2416C70.489 77.2012 70.3 78.1516 69.9327 79.0382C69.5655 79.9248 69.0272 80.7305 68.3486 81.4091C67.67 82.0877 66.8643 82.626 65.9777 82.9932C65.091 83.3605 64.1407 83.5495 63.181 83.5495C62.2213 83.5495 61.271 83.3605 60.3844 82.9932C59.4977 82.626 58.6921 82.0877 58.0135 81.4091C57.3349 80.7305 56.7966 79.9248 56.4293 79.0382C56.0621 78.1516 55.873 77.2012 55.873 76.2416C55.873 75.2819 56.0621 74.3316 56.4293 73.4449C56.7966 72.5583 57.3349 71.7526 58.0135 71.074C58.6921 70.3954 59.4977 69.8571 60.3844 69.4899C61.271 69.1226 62.2213 68.9336 63.181 68.9336C64.1407 68.9336 65.091 69.1226 65.9777 69.4899C66.8643 69.8571 67.67 70.3954 68.3486 71.074C69.0272 71.7526 69.5655 72.5583 69.9327 73.4449C70.3 74.3316 70.489 75.2819 70.489 76.2416Z" fill="#252323" stroke="#DAD2BC" stroke-width="0.840024" stroke-linecap="round" stroke-linejoin="round"/>
<path d="M39.3537 81.5551L39.3773 81.6587C39.5575 82.4482 40.3436 82.9421 41.1331 82.7619L56.7486 79.1975C57.5381 79.0173 58.032 78.2312 57.8518 77.4417L57.8282 77.3381C57.648 76.5486 56.8619 76.0547 56.0724 76.2349L40.4569 79.7993C39.6674 79.9795 39.1735 80.7656 39.3537 81.5551Z" fill="#252323" stroke="#DAD2BC" stroke-width="0.906109" stroke-linecap="round" stroke-linejoin="round"/>
<path fill-rule="evenodd" clip-rule="evenodd" d="M63.0392 25.0177C62.4992 25.0121 61.9835 25.242 61.6266 25.6473C61.2696 26.0526 61.1069 26.5932 61.1807 27.1282L61.4957 29.538C60.9652 29.7059 60.4678 29.9396 60.031 30.3412C59.9239 30.4396 59.8616 30.603 59.7632 30.7192C59.046 30.1538 58.0242 30.1939 57.3535 30.8137C56.1885 31.8929 54.9566 33.9206 54.928 36.846C54.8981 39.8878 56.0206 42.1502 56.0147 42.7207C56.0133 42.8512 55.9951 42.9013 55.6997 43.3034C55.552 43.5045 55.3091 43.7385 55.1012 44.3429C54.8933 44.9474 55.0833 46.1021 55.5737 46.6582C56.0528 47.2015 56.9056 47.5431 57.6055 47.4929C58.3053 47.4428 58.8177 47.1594 59.2277 46.8472C60.0477 46.2228 60.5852 45.3904 60.9917 44.3744C61.3303 43.5283 61.3229 42.851 61.354 42.1379C61.3805 41.5297 61.4162 40.9202 61.4642 40.3109C61.829 40.7959 62.1517 40.9888 62.3462 41.1142C62.3469 41.4108 62.321 41.7689 62.488 42.2009C62.6662 42.6622 62.9578 42.996 63.1652 43.2089C63.1682 43.2423 63.1645 43.1989 63.181 43.3349C63.218 43.6407 63.3698 44.1963 63.622 44.6579C64.1517 45.6276 64.8322 45.8889 65.3545 46.1384C65.8768 46.388 66.36 46.5458 66.52 46.6109C67.373 46.9583 68.1132 46.8395 68.7723 46.5637C69.4313 46.2879 70.0791 45.7768 70.426 44.9257C70.6748 44.3153 70.6007 44.0502 70.5835 43.7759C70.5663 43.5016 70.535 43.2593 70.489 43.0042C70.411 42.5721 70.2996 42.0983 70.1898 41.6182C70.4025 41.406 70.6206 41.1874 70.7568 40.9567C71.1305 40.3235 71.0537 39.6425 71.056 38.9251C71.0579 38.3382 71.0827 37.6577 70.7254 36.9877C70.5101 36.5841 70.3476 36.3461 69.922 35.8063C69.9105 35.6059 69.9192 35.197 69.8905 34.9717C69.6548 33.1183 68.6086 31.5494 67.4965 29.8057C66.3844 28.0621 65.227 26.5063 64.3622 25.6005C64.0181 25.2355 63.5408 25.0253 63.0392 25.0177Z" fill="#252323"/>
<path d="M63.1439 52.1903H63.0376C62.2278 52.1903 61.5714 52.8468 61.5714 53.6566V69.6737C61.5714 70.4835 62.2278 71.14 63.0376 71.14H63.1439C63.9537 71.14 64.6101 70.4835 64.6101 69.6737V53.6566C64.6101 52.8468 63.9537 52.1903 63.1439 52.1903Z" fill="#252323" stroke="#DAD2BC" stroke-width="0.906109" stroke-linecap="round" stroke-linejoin="round"/>
<path d="M81.5728 61.0281L81.5066 60.9451C81.0017 60.312 80.0791 60.2081 79.446 60.713L66.9237 70.7001C66.2906 71.205 66.1867 72.1276 66.6917 72.7607L66.7579 72.8437C67.2628 73.4768 68.1854 73.5807 68.8185 73.0758L81.3408 63.0887C81.9739 62.5838 82.0778 61.6612 81.5728 61.0281Z" fill="#252323" stroke="#DAD2BC" stroke-width="0.906109" stroke-linecap="round" stroke-linejoin="round"/>
<path d="M44.7454 61.0864L44.6791 61.1694C44.1743 61.8025 44.2782 62.7251 44.9113 63.23L57.4341 73.2164C58.0672 73.7213 58.9898 73.6174 59.4947 72.9842L59.5609 72.9012C60.0658 72.2681 59.9619 71.3455 59.3287 70.8406L46.806 60.8542C46.1728 60.3493 45.2503 60.4532 44.7454 61.0864Z" fill="#252323" stroke="#DAD2BC" stroke-width="0.906109" stroke-linecap="round" stroke-linejoin="round"/>
<path d="M87.9557 11.9925C72.8274 11.9925 60.3101 23.2183 58.2827 37.791C59.8857 37.5742 61.5189 37.4445 63.181 37.4445C64.9778 37.4445 66.7459 37.5856 68.473 37.8382C70.3667 28.8168 78.3748 22.041 87.9557 22.041C98.9435 22.041 107.848 30.9612 107.848 41.949C107.848 49.7959 103.311 56.5832 96.7127 59.8252C97.9982 62.9196 98.8493 66.244 99.2327 69.7005C110.184 65.243 117.912 54.4979 117.912 41.949C117.912 25.41 104.495 11.9925 87.9557 11.9925Z" fill="#252323" stroke="#252323" stroke-width="0.883389" stroke-linecap="round" stroke-linejoin="round"/>
<path d="M38.0598 11.9925C21.5208 11.9925 8.08752 25.41 8.08752 41.949C8.08752 54.623 15.984 65.4518 27.1135 69.8265C27.4841 66.3757 28.3322 63.0595 29.602 59.967C22.8381 56.785 18.1518 49.9136 18.1518 41.949C18.1518 30.9612 27.072 22.041 38.0598 22.041C47.6568 22.041 55.6534 28.8415 57.5268 37.8855C59.368 37.5972 61.2593 37.4445 63.181 37.4445C64.719 37.4445 66.2292 37.5577 67.717 37.7437C65.672 23.1934 53.1722 11.9925 38.0598 11.9925Z" fill="#252323" stroke="#252323" stroke-width="0.883389" stroke-linecap="round" stroke-linejoin="round"/>
<path d="M63.1812 37.4414C43.1517 37.4414 26.8932 53.6954 26.8932 73.7294V77.7614C26.8932 97.7954 43.1517 114.034 63.1812 114.034C83.2107 114.034 99.4692 97.7954 99.4692 77.7614V73.7294C99.4692 53.6954 83.2107 37.4414 63.1812 37.4414ZM63.1812 52.5614C75.4223 52.5614 85.3572 62.4962 85.3572 74.7374C85.3572 86.9785 75.4223 96.9134 63.1812 96.9134C50.94 96.9134 41.0052 86.9785 41.0052 74.7374C41.0052 62.4962 50.94 52.5614 63.1812 52.5614Z" fill="#252323" stroke="#252323" stroke-width="0.840013" stroke-linecap="round" stroke-linejoin="round"/>
<path d="M63.181 38.9691C43.9948 38.9691 28.4208 54.5431 28.4208 73.7293C28.4208 92.9156 43.9948 108.474 63.181 108.474C82.3673 108.474 97.9413 92.9156 97.9413 73.7293C97.9413 54.5431 82.3673 38.9691 63.181 38.9691ZM63.181 51.5533C75.4222 51.5533 85.357 61.4882 85.357 73.7293C85.357 85.9705 75.4222 95.9053 63.181 95.9053C50.9399 95.9053 41.005 85.9705 41.005 73.7293C41.005 61.4882 50.9399 51.5533 63.181 51.5533Z" fill="#252323" stroke="#DAD2BC" stroke-width="0.870557" stroke-linecap="round" stroke-linejoin="round"/>
<path d="M87.0083 81.5551L86.9846 81.6587C86.8044 82.4482 86.0183 82.9421 85.2288 82.7619L69.6133 79.1975C68.8238 79.0173 68.3299 78.2312 68.5101 77.4417L68.5338 77.3381C68.714 76.5486 69.5001 76.0547 70.2895 76.2349L85.9051 79.7993C86.6946 79.9795 87.1885 80.7656 87.0083 81.5551Z" fill="#252323" stroke="#DAD2BC" stroke-width="0.906109" stroke-linecap="round" stroke-linejoin="round"/>
<path d="M63.181 43.0012C43.9948 43.0012 28.4208 58.5752 28.4208 77.7614C28.4208 96.9476 43.9948 112.506 63.181 112.506C82.3673 112.506 97.9413 96.9476 97.9413 77.7614C97.9413 58.5752 82.3673 43.0012 63.181 43.0012ZM63.181 55.5854C75.4222 55.5854 85.357 65.5203 85.357 77.7614C85.357 90.0026 75.4222 99.9374 63.181 99.9374C50.9399 99.9374 41.005 90.0026 41.005 77.7614C41.005 65.5203 50.9399 55.5854 63.181 55.5854Z" fill="#252323" stroke="#DAD2BC" stroke-width="0.870557" stroke-linecap="round" stroke-linejoin="round"/>
<path d="M63.181 38.9723C43.9948 38.9723 28.4208 54.5463 28.4208 73.7325V77.7645C28.4208 96.9508 43.9948 112.509 63.181 112.509C82.3673 112.509 97.9413 96.9508 97.9413 77.7645V73.7325C97.9413 54.5463 82.3673 38.9723 63.181 38.9723Z" stroke="#DAD2BC" stroke-width="0.870557" stroke-linecap="round" stroke-linejoin="round"/>
<path d="M87.9559 13.473C72.237 13.473 59.4799 26.2301 59.4799 41.949C59.4799 56.3251 70.1547 68.2135 84.0026 70.1415C82.4389 65.8886 79.608 62.2436 75.9701 59.6677L75.9859 59.652C70.3062 55.8091 66.5674 49.3171 66.5674 41.949C66.5674 30.1473 76.1542 20.5605 87.9559 20.5605C99.7575 20.5605 109.329 30.1473 109.329 41.949C109.329 50.4239 104.297 58.3846 95.8534 61.8629C96.6787 64.0994 97.2483 66.3706 97.6201 68.7891C109.352 64.2864 116.432 53.7382 116.432 41.949C116.432 26.2301 103.675 13.473 87.9559 13.473Z" fill="#252323" stroke="#DAD2BC" stroke-width="0.839585" stroke-linecap="round" stroke-linejoin="round"/>
<path d="M54.0048 95.9697L54.1005 96.0158C54.8301 96.3671 55.7064 96.0605 56.0577 95.3308L63.007 80.8997C63.3584 80.1701 63.0517 79.2938 62.3221 78.9425L62.2264 78.8964C61.4968 78.5451 60.6205 78.8517 60.2691 79.5813L53.3199 94.0124C52.9685 94.742 53.2752 95.6183 54.0048 95.9697Z" fill="#252323" stroke="#DAD2BC" stroke-width="0.906109" stroke-linecap="round" stroke-linejoin="round"/>
<path d="M72.4272 95.9386L72.523 95.8925C73.2525 95.5411 73.5591 94.6648 73.2078 93.9352L66.2577 79.5044C65.9064 78.7748 65.0301 78.4682 64.3005 78.8195L64.2048 78.8656C63.4752 79.217 63.1686 80.0933 63.5199 80.8229L70.47 95.2537C70.8213 95.9833 71.6976 96.2899 72.4272 95.9386Z" fill="#252323" stroke="#DAD2BC" stroke-width="0.906109" stroke-linecap="round" stroke-linejoin="round"/>
<path d="M68.9771 77.7535C68.9771 78.5147 68.8272 79.2684 68.5359 79.9716C68.2446 80.6748 67.8177 81.3137 67.2795 81.8519C66.7413 82.3902 66.1023 82.8171 65.3991 83.1084C64.6959 83.3997 63.9422 83.5496 63.181 83.5496C62.4199 83.5496 61.6662 83.3997 60.963 83.1084C60.2597 82.8171 59.6208 82.3902 59.0826 81.8519C58.5444 81.3137 58.1174 80.6748 57.8261 79.9716C57.5349 79.2684 57.3849 78.5147 57.3849 77.7535C57.3849 76.9924 57.5349 76.2387 57.8261 75.5354C58.1174 74.8322 58.5444 74.1933 59.0826 73.6551C59.6208 73.1168 60.2597 72.6899 60.963 72.3986C61.6662 72.1073 62.4199 71.9574 63.181 71.9574C63.9422 71.9574 64.6959 72.1073 65.3991 72.3986C66.1023 72.6899 66.7413 73.1168 67.2795 73.6551C67.8177 74.1933 68.2446 74.8322 68.5359 75.5354C68.8272 76.2387 68.9771 76.9924 68.9771 77.7535Z" fill="#252323" stroke="#DAD2BC" stroke-width="0.839869" stroke-linecap="round" stroke-linejoin="round"/>
<path d="M66.7503 77.9452C66.7503 78.8809 66.3786 79.7782 65.717 80.4399C65.0553 81.1015 64.1579 81.4732 63.2222 81.4732C62.2865 81.4732 61.3891 81.1015 60.7275 80.4399C60.0659 79.7782 59.6942 78.8809 59.6942 77.9452C59.6942 77.0095 60.0659 76.1121 60.7275 75.4504C61.3891 74.7888 62.2865 74.4171 63.2222 74.4171C64.1579 74.4171 65.0553 74.7888 65.717 75.4504C66.3786 76.1121 66.7503 77.0095 66.7503 77.9452Z" fill="#252323" stroke="#DAD2BC" stroke-width="0.83987" stroke-linecap="round" stroke-linejoin="round"/>
<path d="M66.0447 79.1546C66.0447 79.9031 65.7473 80.621 65.218 81.1503C64.6887 81.6796 63.9708 81.977 63.2223 81.977C62.4737 81.977 61.7558 81.6796 61.2265 81.1503C60.6972 80.621 60.3998 79.9031 60.3998 79.1546C60.3998 78.406 60.6972 77.6881 61.2265 77.1588C61.7558 76.6295 62.4737 76.3321 63.2223 76.3321C63.9708 76.3321 64.6887 76.6295 65.218 77.1588C65.7473 77.6881 66.0447 78.406 66.0447 79.1546Z" fill="#252323" stroke="#DAD2BC" stroke-width="0.839945" stroke-linecap="round" stroke-linejoin="round"/>
<path d="M63.6407 31.4847C63.3062 31.3178 63.3075 31.1466 62.5184 31.1787C61.704 31.2118 60.6585 31.9365 60.6821 33.117C60.7062 34.323 61.5297 34.52 61.7278 35.0299C61.9259 35.5397 61.6397 36.2349 61.8298 36.6112C62.02 36.9874 62.5366 36.9211 62.748 37.3253C62.9593 37.7295 62.6233 38.759 62.9265 39.1871C63.2465 39.6389 63.8852 39.792 64.0742 40.3093C64.2633 40.8267 64.0102 41.0107 64.2166 41.5446C64.4143 42.0563 64.7851 42.0155 64.9346 42.5127C65.084 43.01 64.94 43.1898 65.2475 43.7525C65.5609 44.3262 66.6806 44.6841 67.2113 44.9002C67.6996 45.099 68.4833 44.8083 68.7161 44.2371C68.9578 43.644 67.7515 40.2402 67.7979 38.3455C67.8431 36.5018 68.3025 37.1709 68.053 35.2084C67.8002 33.2208 65.5866 29.3673 63.0638 28.2773C58.2162 19.4641 48.831 13.473 38.0596 13.473C22.3407 13.473 9.58356 26.2301 9.58356 41.949C9.58356 57.6679 22.3407 70.425 38.0596 70.425C47.8225 70.425 56.4423 65.5082 61.5744 58.014V55.6515C57.4573 55.9389 53.6626 57.3157 50.4706 59.5575C46.9745 62.0508 42.6798 63.3217 38.0596 63.3217C26.2579 63.3217 16.6711 53.7506 16.6711 41.949C16.6711 30.1473 26.2579 20.5605 38.0596 20.5605C46.6291 20.6917 54.0221 25.321 57.6452 33.3691L63.6407 31.4847ZM58.6162 32.1733C57.899 32.8378 56.8031 34.5008 56.7799 36.8662C56.7557 39.3336 57.8923 41.2223 57.8766 42.7323C57.8612 44.2168 56.383 44.7833 56.9584 45.4358C57.5338 46.0883 58.6686 45.2022 59.2794 43.676C59.8936 42.141 58.7918 37.703 61.6768 35.1574" fill="#252323"/>
<path d="M58.6162 32.1734C57.899 32.8378 56.8031 34.5008 56.7799 36.8662C56.7557 39.3336 57.8923 41.2223 57.8766 42.7323C57.8612 44.2168 56.3831 44.7833 56.9584 45.4358C57.5338 46.0883 58.6686 45.2022 59.2794 43.676C59.8936 42.141 58.7918 37.703 61.6768 35.1574M63.6407 31.4847C63.3062 31.3178 63.3075 31.1466 62.5184 31.1787C61.704 31.2118 60.6585 31.9365 60.6821 33.117C60.7062 34.323 61.5297 34.52 61.7278 35.0299C61.9259 35.5397 61.6397 36.2349 61.8298 36.6112C62.02 36.9874 62.5366 36.9211 62.748 37.3253C62.9593 37.7295 62.6233 38.759 62.9265 39.1871C63.2465 39.6389 63.8852 39.792 64.0742 40.3093C64.2633 40.8267 64.0102 41.0107 64.2166 41.5446C64.4143 42.0563 64.7851 42.0155 64.9346 42.5127C65.084 43.01 64.94 43.1898 65.2475 43.7525C65.5609 44.3262 66.6806 44.6841 67.2113 44.9002C67.6996 45.099 68.4833 44.8083 68.7161 44.2371C68.9578 43.644 67.7515 40.2402 67.7979 38.3455C67.8431 36.5018 68.3025 37.1709 68.053 35.2084C67.8002 33.2208 65.5866 29.3673 63.0638 28.2773C58.2162 19.4641 48.831 13.473 38.0596 13.473C22.3407 13.473 9.58356 26.2301 9.58356 41.949C9.58356 57.6679 22.3407 70.425 38.0596 70.425C47.8225 70.425 56.4423 65.5082 61.5744 58.014V55.6515C57.4573 55.9389 53.6626 57.3157 50.4706 59.5575C46.9745 62.0508 42.6798 63.3217 38.0596 63.3217C26.2579 63.3217 16.6711 53.7506 16.6711 41.949C16.6711 30.1473 26.2579 20.5605 38.0596 20.5605C46.6291 20.6917 54.0221 25.321 57.6452 33.3691L63.6407 31.4847Z" stroke="#DAD2BC" stroke-width="0.83958" stroke-linecap="round" stroke-linejoin="round"/>
<path fill-rule="evenodd" clip-rule="evenodd" d="M66.2679 40.0289C66.1713 39.8326 66.0026 39.4869 66.0894 38.7791C66.1755 38.0765 66.4301 37.6422 66.4719 36.9683C66.5153 36.2689 66.3771 35.0375 65.6558 34.9279C64.9345 34.8183 64.2526 35.6743 64.2275 36.6622C64.2018 37.6756 64.9466 38.6853 65.5283 38.6516C66.1108 38.6179 66.1409 37.8073 66.3954 37.8609" fill="#252323"/>
<path d="M66.2679 40.0289C66.1713 39.8326 66.0026 39.4869 66.0894 38.7791C66.1755 38.0765 66.4301 37.6422 66.4719 36.9683C66.5153 36.2689 66.3771 35.0375 65.6558 34.9279C64.9345 34.8183 64.2526 35.6743 64.2275 36.6622C64.2018 37.6756 64.9466 38.6853 65.5283 38.6516C66.1108 38.6179 66.1409 37.8073 66.3954 37.8609" stroke="#DAD2BC" stroke-width="0.42"/>
<path fill-rule="evenodd" clip-rule="evenodd" d="M66.5314 34.371C66.8384 34.6674 67.0793 34.9907 67.1945 35.8247C67.3131 36.6838 66.7262 38.3062 66.761 38.9873C66.7957 39.6684 66.9551 39.9224 67.0925 40.237" fill="#252323"/>
<path d="M66.5314 34.371C66.8384 34.6674 67.0793 34.9907 67.1945 35.8247C67.3131 36.6838 66.7262 38.3062 66.761 38.9873C66.7957 39.6684 66.9551 39.9224 67.0925 40.237" stroke="#DAD2BC" stroke-width="0.42"/>
<path opacity="0.3" fill-rule="evenodd" clip-rule="evenodd" d="M68.2542 36.8635C68.1671 37.1508 68.0546 37.4574 68.0337 38.3125C68.0178 38.9617 68.1476 39.7981 68.3172 40.6278C68.3465 40.6274 68.3821 40.6177 68.4117 40.612C69.0342 40.492 69.4486 39.714 69.4512 38.9268C69.4538 38.1396 69.1171 37.2098 68.4904 36.8635C68.42 36.8246 68.3286 36.8527 68.2542 36.8635Z" fill="#252323" stroke="#DAD2BC" stroke-width="0.42"/>
</svg>
