<svg width="500" height="500" viewBox="0 0 500 500" fill="none" xmlns="http://www.w3.org/2000/svg">
<path d="M272.709 290.165C272.709 293.075 272.136 295.956 271.022 298.645C269.908 301.334 268.276 303.776 266.218 305.834C264.161 307.892 261.718 309.524 259.029 310.638C256.34 311.752 253.459 312.325 250.549 312.325C247.639 312.325 244.757 311.752 242.068 310.638C239.38 309.524 236.937 307.892 234.879 305.834C232.821 303.776 231.189 301.334 230.076 298.645C228.962 295.956 228.389 293.075 228.389 290.165C228.389 287.255 228.962 284.373 230.076 281.684C231.189 278.996 232.821 276.553 234.879 274.495C236.937 272.437 239.38 270.805 242.068 269.691C244.757 268.578 247.639 268.005 250.549 268.005C253.459 268.005 256.34 268.578 259.029 269.691C261.718 270.805 264.161 272.437 266.218 274.495C268.276 276.553 269.908 278.996 271.022 281.684C272.136 284.373 272.709 287.255 272.709 290.165V290.165Z" fill="#252323" stroke="#DAD2BC" stroke-width="0.840024" stroke-linecap="round" stroke-linejoin="round"/>
<path d="M178.297 306.277L178.368 306.591C178.915 308.985 181.299 310.483 183.693 309.936L231.044 299.128C233.438 298.581 234.935 296.198 234.389 293.804L234.317 293.49C233.771 291.096 231.387 289.598 228.993 290.144L181.642 300.953C179.248 301.499 177.75 303.883 178.297 306.277Z" fill="#252323" stroke="#DAD2BC" stroke-width="0.906109" stroke-linecap="round" stroke-linejoin="round"/>
<path fill-rule="evenodd" clip-rule="evenodd" d="M250.119 134.838C248.481 134.821 246.917 135.518 245.835 136.747C244.753 137.976 244.259 139.616 244.483 141.238L245.438 148.545C243.83 149.054 242.321 149.763 240.997 150.981C240.672 151.279 240.483 151.775 240.185 152.127C238.01 150.412 234.911 150.534 232.878 152.413C229.345 155.686 225.61 161.835 225.523 170.705C225.432 179.929 228.836 186.789 228.818 188.519C228.814 188.915 228.759 189.067 227.863 190.286C227.415 190.896 226.678 191.605 226.048 193.438C225.418 195.271 225.994 198.773 227.481 200.459C228.934 202.106 231.52 203.142 233.642 202.99C235.764 202.838 237.318 201.979 238.561 201.032C241.047 199.139 242.677 196.615 243.91 193.534C244.937 190.968 244.914 188.914 245.008 186.752C245.089 184.908 245.197 183.059 245.343 181.212C246.449 182.683 247.427 183.268 248.017 183.648C248.019 184.547 247.941 185.633 248.447 186.943C248.988 188.342 249.872 189.354 250.501 190C250.51 190.101 250.499 189.969 250.549 190.382C250.661 191.309 251.121 192.994 251.886 194.393C253.492 197.334 255.556 198.126 257.139 198.883C258.723 199.64 260.188 200.118 260.673 200.316C263.26 201.369 265.505 201.009 267.503 200.172C269.501 199.336 271.466 197.786 272.518 195.205C273.272 193.354 273.047 192.551 272.995 191.719C272.943 190.887 272.848 190.152 272.709 189.379C272.472 188.068 272.134 186.632 271.801 185.176C272.446 184.533 273.108 183.87 273.521 183.17C274.654 181.25 274.421 179.185 274.428 177.01C274.434 175.23 274.509 173.167 273.425 171.135C272.773 169.911 272.28 169.189 270.989 167.553C270.955 166.945 270.981 165.705 270.894 165.022C270.179 159.402 267.007 154.644 263.635 149.357C260.262 144.07 256.753 139.352 254.13 136.605C253.087 135.498 251.64 134.861 250.119 134.838Z" fill="#252323"/>
<path d="M250.436 217.234H250.114C247.658 217.234 245.667 219.225 245.667 221.68V270.249C245.667 272.705 247.658 274.695 250.114 274.695H250.436C252.891 274.695 254.882 272.705 254.882 270.249V221.68C254.882 219.225 252.891 217.234 250.436 217.234Z" fill="#252323" stroke="#DAD2BC" stroke-width="0.906109" stroke-linecap="round" stroke-linejoin="round"/>
<path d="M306.319 244.033L306.118 243.781C304.587 241.861 301.789 241.546 299.869 243.077L261.898 273.361C259.978 274.892 259.663 277.69 261.194 279.609L261.395 279.861C262.926 281.781 265.724 282.096 267.644 280.565L305.615 250.281C307.535 248.75 307.85 245.953 306.319 244.033Z" fill="#252323" stroke="#DAD2BC" stroke-width="0.906109" stroke-linecap="round" stroke-linejoin="round"/>
<path d="M194.646 244.209L194.445 244.461C192.914 246.381 193.23 249.179 195.15 250.71L233.122 280.992C235.042 282.523 237.84 282.207 239.371 280.287L239.572 280.036C241.103 278.116 240.787 275.318 238.868 273.787L200.895 243.505C198.975 241.974 196.177 242.29 194.646 244.209Z" fill="#252323" stroke="#DAD2BC" stroke-width="0.906109" stroke-linecap="round" stroke-linejoin="round"/>
<path d="M325.673 95.3416C279.8 95.3416 241.843 129.382 235.696 173.571C240.556 172.913 245.509 172.52 250.549 172.52C255.997 172.52 261.359 172.948 266.596 173.714C272.338 146.358 296.621 125.812 325.673 125.812C358.991 125.812 385.993 152.861 385.993 186.179C385.993 209.973 372.236 230.554 352.227 240.385C356.125 249.768 358.706 259.849 359.869 270.33C393.077 256.814 416.511 224.231 416.511 186.179C416.511 136.028 375.825 95.3416 325.673 95.3416Z" fill="#252323" stroke="#252323" stroke-width="0.883389" stroke-linecap="round" stroke-linejoin="round"/>
<path d="M174.373 95.3416C124.222 95.3416 83.4883 136.028 83.4883 186.179C83.4883 224.611 107.433 257.447 141.181 270.712C142.305 260.248 144.876 250.193 148.727 240.815C128.216 231.166 114.006 210.33 114.006 186.179C114.006 152.861 141.055 125.812 174.373 125.812C203.474 125.812 227.723 146.433 233.403 173.857C238.986 172.983 244.722 172.52 250.549 172.52C255.212 172.52 259.792 172.863 264.303 173.427C258.102 129.306 220.199 95.3416 174.373 95.3416Z" fill="#252323" stroke="#252323" stroke-width="0.883389" stroke-linecap="round" stroke-linejoin="round"/>
<path d="M250.549 172.511C189.813 172.511 140.512 221.798 140.512 282.547V294.773C140.512 355.523 189.813 404.762 250.549 404.762C311.285 404.762 360.585 355.523 360.585 294.773V282.547C360.585 221.798 311.285 172.511 250.549 172.511ZM250.549 218.359C287.668 218.359 317.793 248.485 317.793 285.604C317.793 322.723 287.668 352.848 250.549 352.848C213.43 352.848 183.304 322.723 183.304 285.604C183.304 248.485 213.43 218.359 250.549 218.359Z" fill="#252323" stroke="#252323" stroke-width="0.840013" stroke-linecap="round" stroke-linejoin="round"/>
<path d="M250.549 177.143C192.37 177.143 145.145 224.368 145.145 282.547C145.145 340.725 192.37 387.903 250.549 387.903C308.728 387.903 355.953 340.725 355.953 282.547C355.953 224.368 308.728 177.143 250.549 177.143ZM250.549 215.302C287.668 215.302 317.794 245.428 317.794 282.547C317.794 319.666 287.668 349.791 250.549 349.791C213.43 349.791 183.305 319.666 183.305 282.547C183.305 245.428 213.43 215.302 250.549 215.302Z" fill="#252323" stroke="#DAD2BC" stroke-width="0.870557" stroke-linecap="round" stroke-linejoin="round"/>
<path d="M322.801 306.277L322.729 306.591C322.182 308.985 319.799 310.483 317.405 309.936L270.054 299.128C267.66 298.582 266.162 296.198 266.709 293.804L266.78 293.49C267.327 291.096 269.71 289.598 272.104 290.145L319.455 300.953C321.849 301.499 323.347 303.883 322.801 306.277Z" fill="#252323" stroke="#DAD2BC" stroke-width="0.906109" stroke-linecap="round" stroke-linejoin="round"/>
<path d="M250.549 189.369C192.37 189.369 145.145 236.595 145.145 294.773C145.145 352.952 192.37 400.129 250.549 400.129C308.728 400.129 355.953 352.952 355.953 294.773C355.953 236.595 308.728 189.369 250.549 189.369ZM250.549 227.529C287.668 227.529 317.794 257.654 317.794 294.773C317.794 331.892 287.668 362.018 250.549 362.018C213.43 362.018 183.305 331.892 183.305 294.773C183.305 257.654 213.43 227.529 250.549 227.529Z" fill="#252323" stroke="#DAD2BC" stroke-width="0.870557" stroke-linecap="round" stroke-linejoin="round"/>
<path d="M250.549 177.153C192.37 177.153 145.145 224.378 145.145 282.557V294.783C145.145 352.961 192.37 400.139 250.549 400.139C308.728 400.139 355.953 352.961 355.953 294.783V282.557C355.953 224.378 308.728 177.153 250.549 177.153Z" stroke="#DAD2BC" stroke-width="0.870557" stroke-linecap="round" stroke-linejoin="round"/>
<path d="M325.673 99.8311C278.009 99.8311 239.325 138.515 239.325 186.179C239.325 229.772 271.695 265.821 313.686 271.667C308.944 258.771 300.36 247.719 289.329 239.908L289.377 239.86C272.154 228.207 260.817 208.522 260.817 186.179C260.817 150.393 289.887 121.323 325.673 121.323C361.46 121.323 390.482 150.393 390.482 186.179C390.482 211.878 375.224 236.017 349.621 246.564C352.124 253.346 353.851 260.233 354.978 267.567C390.554 253.913 412.021 221.927 412.021 186.179C412.021 138.515 373.338 99.8311 325.673 99.8311Z" fill="#252323" stroke="#DAD2BC" stroke-width="0.839585" stroke-linecap="round" stroke-linejoin="round"/>
<path d="M222.723 349.986L223.014 350.126C225.226 351.192 227.883 350.262 228.949 348.049L250.021 304.29C251.086 302.077 250.156 299.42 247.944 298.355L247.654 298.215C245.441 297.15 242.784 298.079 241.719 300.292L220.646 344.051C219.581 346.264 220.511 348.921 222.723 349.986Z" fill="#252323" stroke="#DAD2BC" stroke-width="0.906109" stroke-linecap="round" stroke-linejoin="round"/>
<path d="M278.586 349.892L278.877 349.752C281.089 348.687 282.019 346.03 280.953 343.817L259.878 300.059C258.813 297.846 256.156 296.916 253.943 297.982L253.653 298.122C251.441 299.187 250.511 301.844 251.577 304.057L272.651 347.816C273.717 350.028 276.374 350.958 278.586 349.892Z" fill="#252323" stroke="#DAD2BC" stroke-width="0.906109" stroke-linecap="round" stroke-linejoin="round"/>
<path d="M268.124 294.749C268.124 297.057 267.67 299.343 266.786 301.475C265.903 303.608 264.608 305.545 262.976 307.177C261.344 308.809 259.407 310.104 257.274 310.987C255.142 311.87 252.857 312.325 250.549 312.325C248.241 312.325 245.955 311.87 243.823 310.987C241.69 310.104 239.753 308.809 238.121 307.177C236.489 305.545 235.194 303.608 234.311 301.475C233.428 299.343 232.973 297.057 232.973 294.749C232.973 292.441 233.428 290.156 234.311 288.024C235.194 285.891 236.489 283.954 238.121 282.322C239.753 280.69 241.69 279.395 243.823 278.512C245.955 277.628 248.241 277.174 250.549 277.174C252.857 277.174 255.142 277.628 257.274 278.512C259.407 279.395 261.344 280.69 262.976 282.322C264.608 283.954 265.903 285.891 266.786 288.024C267.67 290.156 268.124 292.441 268.124 294.749V294.749Z" fill="#252323" stroke="#DAD2BC" stroke-width="0.839869" stroke-linecap="round" stroke-linejoin="round"/>
<path d="M261.372 295.331C261.372 298.168 260.245 300.889 258.239 302.895C256.232 304.902 253.511 306.029 250.674 306.029C247.836 306.029 245.115 304.902 243.109 302.895C241.103 300.889 239.976 298.168 239.976 295.331C239.976 292.493 241.103 289.772 243.109 287.766C245.115 285.76 247.836 284.632 250.674 284.632C253.511 284.632 256.232 285.76 258.239 287.766C260.245 289.772 261.372 292.493 261.372 295.331Z" fill="#252323" stroke="#DAD2BC" stroke-width="0.83987" stroke-linecap="round" stroke-linejoin="round"/>
<path d="M259.233 298.998C259.233 301.268 258.331 303.445 256.726 305.05C255.121 306.655 252.944 307.556 250.674 307.556C248.404 307.556 246.227 306.655 244.622 305.05C243.017 303.445 242.116 301.268 242.116 298.998C242.116 296.728 243.017 294.551 244.622 292.946C246.227 291.341 248.404 290.439 250.674 290.439C252.944 290.439 255.121 291.341 256.726 292.946C258.331 294.551 259.233 296.728 259.233 298.998Z" fill="#252323" stroke="#DAD2BC" stroke-width="0.839945" stroke-linecap="round" stroke-linejoin="round"/>
<path d="M251.943 154.448C250.929 153.942 250.933 153.423 248.54 153.52C246.07 153.621 242.9 155.818 242.972 159.398C243.045 163.055 245.542 163.652 246.143 165.198C246.743 166.744 245.875 168.852 246.452 169.993C247.028 171.134 248.595 170.933 249.236 172.159C249.877 173.384 248.858 176.506 249.777 177.804C250.748 179.174 252.684 179.638 253.258 181.207C253.831 182.776 253.063 183.334 253.689 184.953C254.289 186.505 255.413 186.381 255.866 187.888C256.32 189.396 255.883 189.942 256.815 191.648C257.766 193.388 261.161 194.473 262.77 195.128C264.251 195.731 266.627 194.849 267.333 193.117C268.066 191.319 264.408 180.997 264.549 175.252C264.686 169.661 266.079 171.69 265.322 165.74C264.556 159.713 257.844 148.028 250.194 144.722C235.494 117.998 207.036 99.8311 174.373 99.8311C126.709 99.8311 88.0251 138.515 88.0251 186.179C88.0251 233.844 126.709 272.527 174.373 272.527C203.977 272.527 230.115 257.618 245.677 234.893V227.729C233.193 228.601 221.686 232.776 212.007 239.573C201.406 247.134 188.383 250.988 174.373 250.988C138.587 250.988 109.517 221.965 109.517 186.179C109.517 150.393 138.587 121.323 174.373 121.323C200.359 121.72 222.777 135.758 233.763 160.162L251.943 154.448ZM236.707 156.536C234.532 158.551 231.209 163.594 231.139 170.767C231.066 178.248 234.512 183.975 234.465 188.554C234.418 193.056 229.936 194.774 231.68 196.752C233.425 198.731 236.866 196.044 238.718 191.416C240.581 186.761 237.24 173.304 245.988 165.585" fill="#252323"/>
<path d="M236.707 156.536C234.532 158.551 231.209 163.594 231.139 170.767C231.066 178.248 234.512 183.975 234.465 188.554C234.418 193.056 229.936 194.774 231.68 196.752C233.425 198.731 236.866 196.044 238.718 191.416C240.581 186.761 237.24 173.304 245.988 165.585M251.943 154.448C250.929 153.942 250.933 153.423 248.54 153.52C246.07 153.621 242.9 155.818 242.972 159.398C243.045 163.055 245.542 163.652 246.143 165.198C246.743 166.744 245.875 168.852 246.452 169.993C247.028 171.134 248.595 170.933 249.236 172.159C249.877 173.384 248.858 176.506 249.777 177.804C250.748 179.174 252.684 179.638 253.258 181.207C253.831 182.776 253.063 183.334 253.689 184.953C254.289 186.505 255.413 186.381 255.866 187.888C256.32 189.396 255.883 189.942 256.815 191.648C257.766 193.388 261.161 194.473 262.77 195.128C264.251 195.731 266.627 194.849 267.333 193.117C268.066 191.319 264.408 180.997 264.549 175.252C264.686 169.661 266.079 171.69 265.322 165.74C264.556 159.713 257.844 148.028 250.194 144.722C235.494 117.998 207.036 99.8311 174.373 99.8311C126.709 99.8311 88.0251 138.515 88.0251 186.179C88.0251 233.844 126.709 272.527 174.373 272.527C203.977 272.527 230.115 257.618 245.677 234.893V227.729C233.193 228.601 221.686 232.776 212.007 239.573C201.406 247.134 188.383 250.988 174.373 250.988C138.587 250.988 109.517 221.965 109.517 186.179C109.517 150.393 138.587 121.323 174.373 121.323C200.359 121.72 222.777 135.758 233.763 160.162L251.943 154.448Z" stroke="#DAD2BC" stroke-width="0.83958" stroke-linecap="round" stroke-linejoin="round"/>
<path fill-rule="evenodd" clip-rule="evenodd" d="M259.909 180.357C259.616 179.762 259.105 178.713 259.368 176.567C259.629 174.436 260.401 173.12 260.528 171.076C260.66 168.955 260.24 165.221 258.053 164.889C255.866 164.556 253.798 167.152 253.722 170.148C253.644 173.221 255.903 176.283 257.666 176.18C259.433 176.078 259.524 173.62 260.296 173.783" fill="#252323"/>
<path d="M259.909 180.357C259.616 179.762 259.105 178.713 259.368 176.567C259.629 174.436 260.401 173.12 260.528 171.076C260.66 168.955 260.24 165.221 258.053 164.889C255.866 164.556 253.798 167.152 253.722 170.148C253.644 173.221 255.903 176.283 257.666 176.18C259.433 176.078 259.524 173.62 260.296 173.783" stroke="#DAD2BC" stroke-width="0.42"/>
<path fill-rule="evenodd" clip-rule="evenodd" d="M260.708 163.2C261.639 164.099 262.37 165.079 262.719 167.608C263.079 170.213 261.299 175.133 261.404 177.198C261.51 179.264 261.993 180.034 262.41 180.988" fill="#252323"/>
<path d="M260.708 163.2C261.639 164.099 262.37 165.079 262.719 167.608C263.079 170.213 261.299 175.133 261.404 177.198C261.51 179.264 261.993 180.034 262.41 180.988" stroke="#DAD2BC" stroke-width="0.42"/>
<path opacity="0.3" fill-rule="evenodd" clip-rule="evenodd" d="M265.932 170.758C265.668 171.63 265.327 172.559 265.264 175.152C265.216 177.121 265.609 179.657 266.123 182.173C266.212 182.171 266.32 182.142 266.41 182.125C268.298 181.761 269.554 179.402 269.562 177.015C269.57 174.628 268.549 171.808 266.649 170.758C266.435 170.64 266.158 170.726 265.932 170.758Z" fill="#252323" stroke="#DAD2BC" stroke-width="0.42"/>
</svg>
