<?xml version="1.0" standalone="no"?>
<!DOCTYPE svg PUBLIC "-//W3C//DTD SVG 1.1//EN" "http://www.w3.org/Graphics/SVG/1.1/DTD/svg11.dtd" >
<svg xmlns="http://www.w3.org/2000/svg">
<metadata>Generated by IcoMoon</metadata>
<defs>
<font id="icomoon" horiz-adv-x="1024">
<font-face units-per-em="1024" ascent="960" descent="-64" />
<missing-glyph horiz-adv-x="1024" />
<glyph unicode="&#x20;" horiz-adv-x="512" d="" />
<glyph unicode="&#xe900;" glyph-name="minus" d="M976.434 348.372h-928.88c-10.6 0-19.193 8.593-19.193 19.193v160.883c0 10.6 8.593 19.193 19.193 19.193h928.88c10.6 0 19.193-8.593 19.193-19.193v-160.883c0-10.6-8.593-19.193-19.193-19.193z" />
<glyph unicode="&#xe901;" glyph-name="plus" d="M976.434 348.372h-928.88c-10.6 0-19.193 8.593-19.193 19.193v160.883c0 10.6 8.593 19.193 19.193 19.193h928.88c10.6 0 19.193-8.593 19.193-19.193v-160.883c0-10.6-8.593-19.193-19.193-19.193zM611.628 912.441v-928.88c0-10.6-8.593-19.193-19.193-19.193h-160.883c-10.6 0-19.193 8.593-19.193 19.193v928.88c0 10.6 8.593 19.193 19.193 19.193h160.883c10.6 0 19.193-8.593 19.193-19.193z" />
<glyph unicode="&#xe902;" d="M572.863 340.386c0-7.799-1.536-15.523-4.521-22.728s-7.359-13.753-12.874-19.268c-5.515-5.515-12.063-9.89-19.268-12.874s-14.929-4.521-22.729-4.521c-7.799 0-15.523 1.536-22.728 4.521s-13.753 7.359-19.268 12.874c-5.515 5.515-9.89 12.063-12.875 19.268s-4.521 14.929-4.521 22.728c0 7.799 1.537 15.523 4.521 22.729s7.36 13.753 12.875 19.268c5.515 5.515 12.062 9.89 19.268 12.874s14.928 4.521 22.728 4.521c7.799 0 15.523-1.536 22.729-4.521s13.753-7.359 19.268-12.874c5.515-5.515 9.89-12.063 12.874-19.268s4.521-14.929 4.521-22.729z" />
<glyph unicode="&#xe903;" d="M319.827 297.203l0.192-0.842c1.464-6.416 7.853-10.43 14.269-8.966l126.907 28.968c6.416 1.464 10.43 7.853 8.966 14.269l-0.192 0.842c-1.464 6.416-7.853 10.43-14.269 8.966l-126.907-28.968c-6.416-1.464-10.43-7.853-8.966-14.269z" />
<glyph unicode="&#xe904;" d="M512.319 756.682c-4.389 0.046-8.58-1.823-11.48-5.117s-4.224-7.687-3.624-12.035l2.56-19.584c-4.311-1.365-8.354-3.264-11.904-6.528-0.87-0.8-1.377-2.128-2.176-3.072-5.829 4.595-14.133 4.269-19.584-0.768-9.468-8.771-19.48-25.25-19.712-49.024-0.243-24.721 8.88-43.107 8.832-47.744-0.011-1.061-0.159-1.468-2.56-4.736-1.2-1.634-3.174-3.536-4.864-8.448s-0.145-14.297 3.84-18.816c3.894-4.415 10.824-7.192 16.512-6.784s9.852 2.71 13.184 5.248c6.664 5.074 11.032 11.839 14.336 20.096 2.752 6.876 2.692 12.381 2.944 18.176 0.215 4.943 0.505 9.896 0.896 14.848 2.965-3.942 5.587-5.509 7.168-6.528 0.006-2.41-0.205-5.321 1.152-8.832 1.448-3.749 3.818-6.462 5.504-8.192 0.024-0.271-0.006 0.081 0.128-1.024 0.301-2.485 1.534-7.001 3.584-10.752 4.305-7.881 9.835-10.004 14.080-12.032s8.172-3.311 9.472-3.84c6.932-2.823 12.948-1.858 18.304 0.384s10.62 6.395 13.44 13.312c2.022 4.961 1.42 7.115 1.28 9.344s-0.394 4.198-0.768 6.272c-0.634 3.512-1.539 7.362-2.432 11.264 1.729 1.725 3.501 3.501 4.608 5.376 3.037 5.146 2.413 10.68 2.432 16.511 0.015 4.77 0.217 10.3-2.687 15.745-1.75 3.28-3.070 5.214-6.529 9.601-0.093 1.629-0.023 4.952-0.256 6.783-1.916 15.063-10.418 27.813-19.456 41.984s-18.444 26.814-25.472 34.176c-2.796 2.966-6.676 4.675-10.752 4.736z" />
<glyph unicode="&#xe905;" d="M513.169 535.85h-0.864c-6.581 0-11.916-5.335-11.916-11.917v-130.171c0-6.581 5.335-11.917 11.916-11.917h0.864c6.581 0 11.916 5.335 11.916 11.917v130.171c0 6.581-5.335 11.917-11.916 11.917z" />
<glyph unicode="&#xe906;" d="M662.941 464.026l-0.538 0.675c-4.103 5.145-11.601 5.99-16.746 1.886l-101.769-81.165c-5.145-4.103-5.99-11.601-1.885-16.746l0.538-0.675c4.103-5.145 11.601-5.99 16.746-1.886l101.769 81.165c5.145 4.103 5.99 11.601 1.885 16.746z" />
<glyph unicode="&#xe907;" d="M363.645 463.552l-0.539-0.675c-4.103-5.145-3.258-12.643 1.887-16.746l101.773-81.159c5.145-4.103 12.643-3.259 16.746 1.887l0.538 0.675c4.103 5.145 3.259 12.643-1.887 16.746l-101.772 81.159c-5.146 4.103-12.643 3.259-16.746-1.887z" />
<glyph unicode="&#xe908;" d="M714.815 862.537c-122.947 0-224.675-91.232-241.152-209.664 13.028 1.762 26.301 2.816 39.808 2.816 14.603 0 28.972-1.147 43.008-3.2 15.39 73.317 80.472 128.384 158.336 128.384 89.298 0 161.664-72.494 161.664-161.792 0-63.772-36.872-118.932-90.496-145.28 10.447-25.148 17.364-52.165 20.48-80.256 89.001 36.226 151.806 123.551 151.806 225.536 0 134.412-109.040 243.456-243.454 243.456z" />
<glyph unicode="&#xe909;" d="M309.311 862.537c-134.412 0-243.584-109.044-243.584-243.456 0-103.001 64.175-191.007 154.624-226.56 3.012 28.045 9.904 54.995 20.224 80.128-54.97 25.86-93.056 81.704-93.056 146.432 0 89.298 72.494 161.792 161.792 161.792 77.995 0 142.983-55.268 158.208-128.768 14.963 2.343 30.334 3.584 45.952 3.584 12.499 0 24.773-0.92 36.864-2.432-16.62 118.25-118.205 209.28-241.024 209.28z" />
<glyph unicode="&#xe90a;" d="M513.473 655.714c-162.779 0-294.912-132.096-294.912-294.912v-32.768c0-162.816 132.133-294.787 294.912-294.787s294.912 131.971 294.912 294.787v32.768c0 162.816-132.133 294.912-294.912 294.912zM513.473 532.834c99.483 0 180.224-80.74 180.224-180.224s-80.741-180.224-180.224-180.224c-99.484 0-180.224 80.741-180.224 180.224s80.74 180.224 180.224 180.224z" />
<glyph unicode="&#xe90b;" d="M513.471 643.299c-155.926 0-282.496-126.57-282.496-282.496s126.57-282.37 282.496-282.37c155.927 0 282.496 126.443 282.496 282.37s-126.57 282.496-282.496 282.496zM513.471 541.027c99.484 0 180.224-80.741 180.224-180.224s-80.74-180.224-180.224-180.224c-99.483 0-180.224 80.74-180.224 180.224s80.741 180.224 180.224 180.224z" />
<glyph unicode="&#xe90c;" d="M707.115 297.203l-0.193-0.842c-1.464-6.416-7.853-10.43-14.269-8.966l-126.907 28.968c-6.416 1.464-10.43 7.853-8.966 14.269l0.193 0.842c1.464 6.416 7.853 10.43 14.269 8.966l126.908-28.968c6.416-1.464 10.43-7.853 8.966-14.269z" />
<glyph unicode="&#xe90d;" d="M513.471 610.53c-155.926 0-282.496-126.57-282.496-282.496s126.57-282.369 282.496-282.369c155.927 0 282.496 126.443 282.496 282.369s-126.57 282.496-282.496 282.496zM513.471 508.258c99.484 0 180.224-80.741 180.224-180.224s-80.74-180.224-180.224-180.224c-99.483 0-180.224 80.74-180.224 180.224s80.741 180.224 180.224 180.224z" />
<glyph unicode="&#xe90e;" d="M714.816 850.505c-127.747 0-231.424-103.677-231.424-231.424 0-116.834 86.754-213.451 199.296-229.12-12.708 34.563-35.715 64.186-65.28 85.12l0.128 0.128c-46.159 31.231-76.544 83.992-76.544 143.872 0 95.912 77.912 173.824 173.824 173.824s173.699-77.912 173.699-173.824c0-68.875-40.895-133.572-109.516-161.84 6.707-18.176 11.336-36.634 14.358-56.289 95.345 36.593 152.884 122.318 152.884 218.129 0 127.747-103.676 231.424-231.425 231.424z" />
<glyph unicode="&#xe90f;" d="M438.896 180.056l0.778-0.375c5.929-2.855 13.051-0.363 15.906 5.567l56.477 117.281c2.856 5.929 0.363 13.051-5.566 15.906l-0.778 0.375c-5.929 2.855-13.051 0.363-15.907-5.566l-56.476-117.281c-2.856-5.929-0.363-13.051 5.566-15.907z" />
<glyph unicode="&#xe910;" d="M588.615 180.309l0.779 0.375c5.929 2.856 8.42 9.977 5.565 15.907l-56.483 117.279c-2.855 5.929-9.977 8.421-15.906 5.566l-0.778-0.375c-5.929-2.856-8.421-9.977-5.566-15.907l56.483-117.279c2.855-5.929 9.977-8.421 15.906-5.566z" />
<glyph unicode="&#xe911;" d="M560.576 328.099c0-6.186-1.218-12.312-3.586-18.026s-5.837-10.907-10.211-15.281c-4.374-4.375-9.567-7.844-15.282-10.212s-11.84-3.586-18.026-3.586c-6.185 0-12.311 1.218-18.026 3.586s-10.908 5.837-15.282 10.212c-4.374 4.374-7.844 9.566-10.212 15.281s-3.586 11.84-3.586 18.026c0 6.185 1.219 12.311 3.586 18.026s5.838 10.907 10.212 15.281c4.374 4.375 9.566 7.844 15.282 10.212s11.84 3.586 18.026 3.586c6.186 0 12.312-1.218 18.026-3.586s10.908-5.837 15.282-10.212c4.374-4.374 7.843-9.566 10.211-15.281s3.586-11.841 3.586-18.026z" />
<glyph unicode="&#xe912;" d="M542.479 326.541c0-7.604-3.021-14.897-8.398-20.274s-12.671-8.398-20.275-8.398c-7.604 0-14.898 3.021-20.274 8.398s-8.398 12.67-8.398 20.274c0 7.604 3.021 14.898 8.398 20.275s12.67 8.398 20.274 8.398c7.604 0 14.898-3.021 20.275-8.398s8.398-12.671 8.398-20.275z" />
<glyph unicode="&#xe913;" d="M536.744 316.712c0-6.083-2.417-11.917-6.719-16.219s-10.136-6.719-16.219-6.719c-6.084 0-11.918 2.417-16.22 6.719s-6.719 10.136-6.719 16.219c0 6.084 2.417 11.918 6.719 16.22s10.136 6.719 16.22 6.719c6.083 0 11.917-2.417 16.219-6.719s6.719-10.136 6.719-16.22z" />
<glyph unicode="&#xe914;" d="M517.207 704.124c-2.718 1.356-2.708 2.748-9.121 2.487-6.619-0.269-15.115-6.159-14.924-15.753 0.196-9.801 6.888-11.402 8.498-15.546s-0.716-9.793 0.829-12.851c1.546-3.057 5.744-2.519 7.462-5.803s-1.013-11.652 1.451-15.131c2.601-3.672 7.791-4.916 9.327-9.12s-0.52-5.7 1.157-10.039c1.607-4.159 4.62-3.827 5.835-7.868s0.044-5.503 2.543-10.076c2.547-4.662 11.647-7.571 15.96-9.327 3.968-1.616 10.338 0.747 12.229 5.389 1.964 4.82-7.839 32.483-7.462 47.881 0.367 14.984 4.101 9.546 2.073 25.495-2.055 16.153-20.044 47.471-40.547 56.329-39.396 71.625-115.67 120.314-203.209 120.314-127.747 0-231.424-103.677-231.424-231.424s103.677-231.424 231.424-231.424c79.343 0 149.396 39.959 191.104 100.864v19.2c-33.46-2.336-64.299-13.525-90.24-31.744-28.413-20.263-63.316-30.592-100.864-30.592-95.912 0-173.824 77.784-173.824 173.696s77.912 173.824 173.824 173.824c69.644-1.066 129.727-38.689 159.172-104.095l48.725 15.314zM476.373 698.528c-5.829-5.4-14.735-18.916-14.924-38.139-0.197-20.053 9.040-35.402 8.913-47.674-0.125-12.065-12.138-16.668-7.462-21.971s13.899 1.898 18.863 14.302c4.992 12.475-3.963 48.542 19.484 69.231z" />
<glyph unicode="&#xe915;" d="M538.558 634.686c-0.785 1.595-2.156 4.405-1.451 10.157 0.7 5.71 2.769 9.24 3.109 14.716 0.353 5.684-0.77 15.692-6.632 16.582s-11.404-6.066-11.608-14.095c-0.209-8.236 5.844-16.442 10.572-16.168 4.734 0.274 4.979 6.862 7.047 6.426z" />
<glyph unicode="&#xe916;" d="M540.7 680.667c2.495-2.409 4.453-5.036 5.389-11.814 0.964-6.982-3.806-20.167-3.523-25.702s1.577-7.6 2.694-10.156z" />
<glyph unicode="&#xe917;" d="M554.701 660.411c-0.708-2.335-1.622-4.827-1.792-11.776-0.129-5.276 0.926-12.073 2.304-18.816 0.238 0.003 0.527 0.082 0.768 0.128 5.059 0.975 8.427 7.298 8.448 13.696s-2.715 13.954-7.808 16.768c-0.572 0.316-1.315 0.088-1.92 0z" />
<glyph unicode="&#xe918;" d="M1024 448c0-282.77-229.23-512-512-512s-512 229.23-512 512c0 282.77 229.23 512 512 512s512-229.23 512-512z" />
<glyph unicode="&#xe919;" d="M808.421 448c0-163.709-132.712-296.421-296.421-296.421s-296.421 132.712-296.421 296.421c0 163.709 132.712 296.421 296.421 296.421s296.421-132.712 296.421-296.421z" />
<glyph unicode="&#xe91a;" d="M1024 448c0-282.77-229.23-512-512-512s-512 229.23-512 512c0 282.77 229.23 512 512 512s512-229.23 512-512z" />
<glyph unicode="&#xe91b;" d="M819.2 448c0-169.662-137.538-307.2-307.2-307.2s-307.2 137.538-307.2 307.2c0 169.662 137.538 307.2 307.2 307.2s307.2-137.538 307.2-307.2z" />
<glyph unicode="&#xe91c;" glyph-name="burger" d="M64 960h896c35.346 0 64-28.654 64-64v-76.795c0-35.346-28.654-64-64-64h-896c-35.346 0-64 28.654-64 64v76.795c0 35.346 28.654 64 64 64zM64 550.398h896c35.346 0 64-28.654 64-64v-76.795c0-35.346-28.654-64-64-64h-896c-35.346 0-64 28.654-64 64v76.795c0 35.346 28.654 64 64 64zM64 140.807h896c35.346 0 64-28.654 64-64v-76.795c0-35.346-28.654-64-64-64h-896c-35.346 0-64 28.654-64 64v76.795c0 35.346 28.654 64 64 64z" />
</font>
</defs>
</svg>
